# xmcd
#
# Track frame offsets: 
#        150
#        16287
#        34594
#        53674
#        74915
#        96547
#        120943
#        139243
#        162936
#        178886
#        193286
#        219412
#        244237
#        262302
#        289144
#        310246
#        335173
#
# Disc length: 4771 seconds
#
# Revision: 0
# Processed by: cddbd v1.5.2PL0 Copyright (c) Steve Scherf et al.
# Submitted via: ExactAudioCopy v1.3
#
DISCID=1412a111
DTITLE=Various Artist - Akella Presents - vol. 147 - Black Pure Blues
DTITLE=CD2
DYEAR=2018
DGENRE=Blues
TTITLE0=Chuck Beattie - Never Get Rich
TTITLE1=Mighty Mo Rodgers - Cadillac Ranch
TTITLE2=Big Woody Garrett - I'll Take Care of You
TTITLE3=Lurrie Bell - I've Got A Watch On You
TTITLE4=Luther Allison - What Have I Done Wrong
TTITLE5=Andrew 'Jr Boy' Jones - I Know What Its Like
TTITLE6=Jerry 'Boogie' McCain - Jealousy
TTITLE7=Jordan Patterson - Give Me A Chance
TTITLE8=Larry Garner - Virus Blues
TTITLE9=Freddie Pate - Dance With Me Baby
TTITLE10=Mel Brown - Little Girl From Maine
TTITLE11=Robert Cray - That's What Keeps Me Rockin'
TTITLE12=Willie King - You Got To Have Love
TTITLE13=Gary B.B. Coleman - Crosscut Saw
TTITLE14=Mike Wheeler - Gotta Wake Up
TTITLE15=Louisiana Red - Rip Off Blues
TTITLE16=Robert Ward - Lord, Have Mercy On Me
EXTD=
EXTT0=
EXTT1=
EXTT2=
EXTT3=
EXTT4=
EXTT5=
EXTT6=
EXTT7=
EXTT8=
EXTT9=
EXTT10=
EXTT11=
EXTT12=
EXTT13=
EXTT14=
EXTT15=
EXTT16=
PLAYORDER=
